<?xml version="1.0" encoding="UTF-8"?>
<svg version="1.1" xmlns="http://www.w3.org/2000/svg" width="500" height="500">
<path d="M0 0 C2.82129637 1.75114947 3.03944644 3.13313172 4 6.375 C4 10 4 10 2 12.625 C-0.22022005 14.38267421 -2.40239945 15.93816658 -4.75 17.5 C-7.35899507 19.28271898 -7.89644202 19.68932605 -8.9375 22.8125 C-8.958125 23.534375 -8.97875 24.25625 -9 25 C-3.39498745 23.53935309 0.58512336 20.73515367 5.1875 17.375 C5.93636475 16.84100586 6.68522949 16.30701172 7.45678711 15.75683594 C10.78165352 13.37789527 14.07115552 10.97166339 17.2734375 8.4296875 C24.83567437 2.51970407 24.83567437 2.51970407 29.4375 2.25 C33 3 33 3 35.5 4.5 C37.16274259 7.27123765 37.91947552 9.56695109 37.796875 12.828125 C36.05567832 17.57373949 31.16013883 20.4357177 27 23 C26.34 23 25.68 23 25 23 C25.495 25.475 25.495 25.475 26 28 C26.86625 27.67 27.7325 27.34 28.625 27 C32.83056178 25.75390762 36.1568741 25.30260101 40.3125 26.875 C42 28 42 28 43 30 C43.62531817 33.29713214 43.91391149 34.8705455 43 38 C40.11713637 41.29747772 36.61974497 43.56876056 33 46 C31.8206908 46.84506649 30.642339 47.69147032 29.46484375 48.5390625 C28.24953945 49.38330252 27.03210844 50.22448985 25.8125 51.0625 C25.24321777 51.46911865 24.67393555 51.8757373 24.08740234 52.29467773 C20.83902151 54.43512366 19.12504516 55.00616239 15.1953125 54.8125 C12 54 12 54 10.0625 52.9375 C8.27028955 49.66935153 8.02253345 46.52825253 9 43 C10.68670332 41.15805284 12.40053855 39.81709701 14.46875 38.421875 C14.9740625 37.95265625 15.479375 37.4834375 16 37 C16 35.68 16 34.36 16 33 C12.14710667 33.55330517 9.8016626 34.56288638 6.6875 36.875 C5.82769531 37.49246094 4.96789062 38.10992187 4.08203125 38.74609375 C2.42011193 39.96146441 0.75951683 41.17870313 -0.89306641 42.40673828 C-2.9583309 43.93423032 -5.04065198 45.43618809 -7.125 46.9375 C-7.78153564 47.43427246 -8.43807129 47.93104492 -9.11450195 48.44287109 C-13.94807726 51.89533869 -17.06122011 52.72100203 -23 52 C-25.5625 49.9375 -25.5625 49.9375 -27 47 C-27.25 43.5625 -27.25 43.5625 -26 40 C-24.03815609 38.27709862 -21.98615972 36.8658061 -19.8125 35.421875 C-17.72697622 34.04950228 -17.72697622 34.04950228 -17 31.125 C-17 30.42375 -17 29.7225 -17 29 C-17.70125 29.144375 -18.4025 29.28875 -19.125 29.4375 C-20.07375 29.623125 -21.0225 29.80875 -22 30 C-22.99 30.2475 -23.98 30.495 -25 30.75 C-28 31 -28 31 -30.75 29.9375 C-33.66635538 27.42619398 -34.40433981 25.79733371 -35 22 C-32.93730025 15.47270122 -28.03376481 12.83878942 -22.5625 9.3125 C-20.85514517 8.18408319 -19.14810286 7.05519336 -17.44140625 5.92578125 C-16.68545166 5.43505127 -15.92949707 4.94432129 -15.15063477 4.4387207 C-13.70193566 3.46957735 -12.2874138 2.4475605 -10.90991211 1.37963867 C-7.11264814 -1.36334211 -4.39287503 -1.09821876 0 0 Z " fill="#5A8FD9" transform="translate(122,184)"/>
<path d="M0 0 C10 0 10 0 12.875 2.08203125 C13.57625 2.98308594 14.2775 3.88414062 15 4.8125 C15.721875 5.70582031 16.44375 6.59914062 17.1875 7.51953125 C18.50043794 9.3163321 19.76558337 11.14837506 21 13 C21.33 8.71 21.66 4.42 22 0 C25.63 0 29.26 0 33 0 C33 10.89 33 21.78 33 33 C22 33 22 33 19.02734375 30.91796875 C18.33769531 30.01691406 17.64804688 29.11585938 16.9375 28.1875 C16.22464844 27.29417969 15.51179687 26.40085938 14.77734375 25.48046875 C13.48506248 23.67695534 12.23071605 21.84607408 11 20 C10.67 24.29 10.34 28.58 10 33 C6.7 33 3.4 33 0 33 C0 22.11 0 11.22 0 0 Z " fill="#463BC9" transform="translate(168,191)"/>
<path d="M0 0 C3.96 0 7.92 0 12 0 C12.06058594 1.64871094 12.12117188 3.29742187 12.18359375 4.99609375 C12.26797937 7.143239 12.35262835 9.29037391 12.4375 11.4375 C12.47681641 12.52611328 12.51613281 13.61472656 12.55664062 14.73632812 C12.61948242 16.28803711 12.61948242 16.28803711 12.68359375 17.87109375 C12.72025146 18.82943115 12.75690918 19.78776855 12.79467773 20.77514648 C12.75834424 22.97138925 12.75834424 22.97138925 14 24 C17 24.16666667 17 24.16666667 20 24 C21.68300669 22.31699331 21.22809077 20.17991273 21.31640625 17.87109375 C21.35830078 16.83662109 21.40019531 15.80214844 21.44335938 14.73632812 C21.48267578 13.64771484 21.52199219 12.55910156 21.5625 11.4375 C21.60568359 10.34501953 21.64886719 9.25253906 21.69335938 8.12695312 C21.79981958 5.41813232 21.90044807 2.70908349 22 0 C25.96 0 29.92 0 34 0 C34.08114826 3.70877584 34.14057594 7.41576511 34.1875 11.125 C34.21263672 12.17171875 34.23777344 13.2184375 34.26367188 14.296875 C34.3172615 19.94164903 34.30228996 24.17598973 31 29 C25.61494145 33.98117916 21.19460297 34.35949883 14.0859375 34.2734375 C9.83735921 33.8969812 6.12813515 33.00753235 3 30 C-0.61162921 23.8370364 -0.35704422 18.06598055 -0.1875 11.0625 C-0.17396484 9.99708984 -0.16042969 8.93167969 -0.14648438 7.83398438 C-0.11135144 5.22243609 -0.05755189 2.61115043 0 0 Z " fill="#4439C6" transform="translate(278,191)"/>
<path d="M0 0 C3.83064861 2.99269423 4.3757212 4.77636256 5 9.5625 C1.37 9.5625 -2.26 9.5625 -6 9.5625 C-6.33 8.9025 -6.66 8.2425 -7 7.5625 C-8.98 7.5625 -10.96 7.5625 -13 7.5625 C-12.443125 7.73265625 -11.88625 7.9028125 -11.3125 8.078125 C-6.00945954 9.76219866 -0.7333007 11.58003757 4 14.5625 C5.73263912 18.02777824 5.4719774 21.77357028 5 25.5625 C2.63154214 29.68537109 0.43479232 31.11180753 -4 32.5625 C-10.84238906 33.28029831 -17.06574219 33.22406333 -23 29.5625 C-25 27.1875 -25 27.1875 -26 24.5625 C-25.6875 21.75 -25.6875 21.75 -25 19.5625 C-23.02 19.2325 -21.04 18.9025 -19 18.5625 C-19.99 17.923125 -20.98 17.28375 -22 16.625 C-24.03188687 14.93095655 -24.88887495 13.98054184 -25.57421875 11.40234375 C-25.77716027 7.21055167 -25.38683826 5.11345145 -22.9375 1.625 C-15.95358981 -3.27859652 -7.65874091 -3.66981335 0 0 Z M-16 19.5625 C-15.36020151 21.59491727 -15.36020151 21.59491727 -14 23.5625 C-10.70572419 24.66059194 -9.33588828 24.67446276 -6 23.5625 C-6 22.9025 -6 22.2425 -6 21.5625 C-9.61973402 20.24623308 -12.09567131 19.5625 -16 19.5625 Z " fill="#4136BF" transform="translate(342,192.4375)"/>
<path d="M0 0 C9.57 0 19.14 0 29 0 C29 2.97 29 5.94 29 9 C23.06 9 17.12 9 11 9 C11 9.99 11 10.98 11 12 C12.60681641 11.98259766 12.60681641 11.98259766 14.24609375 11.96484375 C15.64322743 11.95546701 17.04036299 11.94636669 18.4375 11.9375 C19.14455078 11.92912109 19.85160156 11.92074219 20.58007812 11.91210938 C22.38693559 11.90346412 24.19387603 11.94779989 26 12 C27 13 27 13 27 21 C21.72 21 16.44 21 11 21 C11 22.32 11 23.64 11 25 C16.94 25 22.88 25 29 25 C29 27.64 29 30.28 29 33 C19.43 33 9.86 33 0 33 C0 22.11 0 11.22 0 0 Z " fill="#463ACE" transform="translate(207,191)"/>
<path d="M0 0 C2.26921536 -0.13489391 4.5407067 -0.23193995 6.8125 -0.3125 C8.70935547 -0.39951172 8.70935547 -0.39951172 10.64453125 -0.48828125 C14 0 14 0 15.94921875 2.39453125 C17 5 17 5 17 7 C18.71492688 5.3667363 20.01971193 3.96613592 21.21875 1.90625 C23 0 23 0 25.91796875 -0.390625 C26.99691406 -0.34421875 28.07585937 -0.2978125 29.1875 -0.25 C30.27417969 -0.21390625 31.36085938 -0.1778125 32.48046875 -0.140625 C33.72763672 -0.07101563 33.72763672 -0.07101563 35 0 C33.56691865 3.95906817 31.66858051 7.28718181 29.375 10.8125 C28.74335938 11.78832031 28.11171875 12.76414063 27.4609375 13.76953125 C26.97882813 14.50558594 26.49671875 15.24164063 26 16 C26.721875 17.05960938 27.44375 18.11921875 28.1875 19.2109375 C29.12524162 20.5987951 30.06272848 21.98682488 31 23.375 C31.47695313 24.07367188 31.95390625 24.77234375 32.4453125 25.4921875 C32.89648438 26.1625 33.34765625 26.8328125 33.8125 27.5234375 C34.23144531 28.14138184 34.65039062 28.75932617 35.08203125 29.39599609 C36 31 36 31 36 33 C31.24920084 33.46286541 26.73070169 33.7286245 22 33 C19.35863152 30.69700951 18.13052691 28.28880556 17 25 C16.78988281 25.5775 16.57976562 26.155 16.36328125 26.75 C15.14037567 29.36856361 14.1595152 31.05387563 12 33 C7.5969378 33.72495939 3.42399193 33.46636518 -1 33 C1.38825585 28.51820923 3.75561937 24.20687 6.875 20.1875 C9.20772012 17.38540068 9.20772012 17.38540068 8.88671875 15.1875 C7.63400767 12.09711144 5.83029407 9.5532124 3.9375 6.8125 C0 1.08963093 0 1.08963093 0 0 Z " fill="#453AC9" transform="translate(239,191)"/>
<path d="M0 0 C4.62 0 9.24 0 14 0 C15.57109519 4.21594213 17.13916758 8.43276181 18.69970703 12.65258789 C19.2314862 14.08780763 19.7650041 15.52238439 20.30029297 16.95629883 C21.06936227 19.01737601 21.83215096 21.08068392 22.59375 23.14453125 C22.83436157 23.78526077 23.07497314 24.4259903 23.32287598 25.08613586 C24.34897405 27.88352941 25 29.99163868 25 33 C21.04 33 17.08 33 13 33 C12.67 32.01 12.34 31.02 12 30 C8.37 29.67 4.74 29.34 1 29 C0.67 30.32 0.34 31.64 0 33 C-3.63 33 -7.26 33 -11 33 C-9.55932506 25.47207764 -7.12995528 18.57886064 -4.375 11.4375 C-3.95476562 10.33341797 -3.53453125 9.22933594 -3.1015625 8.09179688 C-2.07322908 5.39242164 -1.03738143 2.69591099 0 0 Z M6 12 C5.34 14.97 4.68 17.94 4 21 C5.98 21 7.96 21 10 21 C9.01 18.03 8.02 15.06 7 12 C6.67 12 6.34 12 6 12 Z " fill="#443AC7" transform="translate(376,191)"/>
<path d="M0 0 C0.66 0.33 1.32 0.66 2 1 C1.49396008 3.16874252 1.00016187 4.99967627 0 7 C1.0725 6.814375 2.145 6.62875 3.25 6.4375 C6.5251541 6.05539869 7.99509027 6.06744181 11 7 C12.32 7 13.64 7 15 7 C15.99 8.485 15.99 8.485 17 10 C17.66 9.67 18.32 9.34 19 9 C19.33 9.66 19.66 10.32 20 11 C25.94 11.33 31.88 11.66 38 12 C36.87531807 17.62340967 36.87531807 17.62340967 33.9375 19.625 C33.22464844 20.11484375 32.51179688 20.6046875 31.77734375 21.109375 C30.86082031 21.73328125 29.94429687 22.3571875 29 23 C27.72824696 23.93970889 26.45891342 24.88269696 25.19140625 25.828125 C23.79501975 26.84477945 22.39787588 27.86039439 21 28.875 C20.33605225 29.37596191 19.67210449 29.87692383 18.98803711 30.39306641 C14.11110316 33.855971 10.98136227 34.73410529 5 34 C2.4375 31.9375 2.4375 31.9375 1 29 C0.75 25.5625 0.75 25.5625 2 22 C3.96184391 20.27709862 6.01384028 18.8658061 8.1875 17.421875 C10.27302378 16.04950228 10.27302378 16.04950228 11 13.125 C11 12.42375 11 11.7225 11 11 C10.29875 11.144375 9.5975 11.28875 8.875 11.4375 C7.451875 11.7159375 7.451875 11.7159375 6 12 C5.01 12.2475 4.02 12.495 3 12.75 C-0.76290803 13.06357567 -2.12091285 12.39923929 -5 10 C-6.3125 7.3125 -6.3125 7.3125 -7 5 C-6.34 5 -5.68 5 -5 5 C-4.731875 4.360625 -4.46375 3.72125 -4.1875 3.0625 C-3 1 -3 1 0 0 Z " fill="#4B4ECD" transform="translate(94,202)"/>
<path d="M0 0 C2.82129637 1.75114947 3.03944644 3.13313172 4 6.375 C4 10 4 10 2 12.625 C-0.22022005 14.38267421 -2.40239945 15.93816658 -4.75 17.5 C-7.35899507 19.28271898 -7.89644202 19.68932605 -8.9375 22.8125 C-8.958125 23.534375 -8.97875 24.25625 -9 25 C-7.02 25 -5.04 25 -3 25 C-2.505 25.99 -2.505 25.99 -2 27 C-3 29 -3 29 -5.25 29.8125 C-8.76935682 30.05245615 -10.21737803 29.08696648 -13 27 C-13.33 26.34 -13.66 25.68 -14 25 C-14.598125 25.185625 -15.19625 25.37125 -15.8125 25.5625 C-18 26 -18 26 -21 25 C-23.33299825 24.96045766 -25.66708189 24.95598268 -28 25 C-27.67 23.02 -27.34 21.04 -27 19 C-30.72614153 20.11854586 -30.72614153 20.11854586 -33 23 C-33.66 22.67 -34.32 22.34 -35 22 C-32.71613601 15.52088371 -28.17895874 12.93236848 -22.5625 9.3125 C-20.85514517 8.18408319 -19.14810286 7.05519336 -17.44140625 5.92578125 C-16.68545166 5.43505127 -15.92949707 4.94432129 -15.15063477 4.4387207 C-13.70193566 3.46957735 -12.2874138 2.4475605 -10.90991211 1.37963867 C-7.11264814 -1.36334211 -4.39287503 -1.09821876 0 0 Z " fill="#5062D3" transform="translate(122,184)"/>
<path d="M0 0 C3.5 0.8125 3.5 0.8125 6 2.3125 C7.66274259 5.08373765 8.41947552 7.37945109 8.296875 10.640625 C6.55567832 15.38623949 1.66013883 18.2482177 -2.5 20.8125 C-3.16 20.8125 -3.82 20.8125 -4.5 20.8125 C-4.17 22.4625 -3.84 24.1125 -3.5 25.8125 C-2.63375 25.4825 -1.7675 25.1525 -0.875 24.8125 C4.52250886 23.21323812 7.43381815 23.27940907 12.5 25.8125 C12.5 28.7825 12.5 31.7525 12.5 34.8125 C11.015 35.3075 11.015 35.3075 9.5 35.8125 C8.84 35.1525 8.18 34.4925 7.5 33.8125 C8.16 33.8125 8.82 33.8125 9.5 33.8125 C9.5 32.1625 9.5 30.5125 9.5 28.8125 C6.48968256 27.87826355 5.63349732 27.76800089 2.5 28.8125 C2.17 28.1525 1.84 27.4925 1.5 26.8125 C0.1078125 27.121875 0.1078125 27.121875 -1.3125 27.4375 C-4.5 27.8125 -4.5 27.8125 -7.5 25.8125 C-7.314375 24.74 -7.12875 23.6675 -6.9375 22.5625 C-6.34759275 18.50347278 -6.34759275 18.50347278 -7.5 14.8125 C-10.40924099 12.06051528 -12.61831808 10.63187422 -16.5 9.8125 C-5.03410911 0.18115165 -5.03410911 0.18115165 0 0 Z " fill="#5EADDD" transform="translate(151.5,186.1875)"/>
<path d="M0 0 C3.63 0 7.26 0 11 0 C11 10.89 11 21.78 11 33 C7.37 33 3.74 33 0 33 C0 22.11 0 11.22 0 0 Z " fill="#463BCF" transform="translate(405,191)"/>
<path d="M0 0 C0.33 0 0.66 0 1 0 C1 2.64 1 5.28 1 8 C0.34 8 -0.32 8 -1 8 C-0.979375 8.721875 -0.95875 9.44375 -0.9375 10.1875 C-0.99820559 12.91925138 -1.39258535 15.34256091 -2 18 C-0.02 15.69 1.96 13.38 4 11 C3.67 10.34 3.34 9.68 3 9 C4.32 8.01 5.64 7.02 7 6 C8.46726798 9.81489674 7.43336419 12.29011622 6 16 C7.65 15.67 9.3 15.34 11 15 C11 14.01 11 13.02 11 12 C11.66 12 12.32 12 13 12 C13.75 14.25 13.75 14.25 14 17 C12.0625 19.3125 12.0625 19.3125 10 21 C13.85645121 21.22036864 16.49223216 20.60355101 20 19 C20 22 20 22 18.5 23.6875 C18.005 24.120625 17.51 24.55375 17 25 C18.65 25 20.3 25 22 25 C22 21.15276398 20.70167183 18.40334366 19 15 C19.66 15 20.32 15 21 15 C21.33 14.01 21.66 13.02 22 12 C22.8394882 14.10171867 23.67139656 16.20646625 24.5 18.3125 C24.9640625 19.48425781 25.428125 20.65601563 25.90625 21.86328125 C27 25 27 25 27 28 C23.04 28 19.08 28 15 28 C14.67 27.01 14.34 26.02 14 25 C10.37 24.67 6.74 24.34 3 24 C2.67 25.32 2.34 26.64 2 28 C-1.63 28 -5.26 28 -9 28 C-7.67554915 21.37105659 -5.78331885 15.24709958 -3.375 8.9375 C-2.88773437 7.6390918 -2.88773437 7.6390918 -2.390625 6.31445312 C-1.59908318 4.20755504 -0.80216278 2.10287198 0 0 Z " fill="#4238C2" transform="translate(374,196)"/>
<path d="M0 0 C3.9179169 4.54983898 3.9179169 4.54983898 4.37109375 7.03515625 C4.82676921 9.15620809 4.82676921 9.15620809 6.8203125 10.23046875 C11.60134401 12.21581234 15.83251134 13.56021373 21 14 C21.96070434 16.88211302 22.10581883 18.69850044 22.0625 21.6875 C22.05347656 22.49574219 22.04445313 23.30398437 22.03515625 24.13671875 C22.02355469 24.75160156 22.01195312 25.36648437 22 26 C21.01 26.33 20.02 26.66 19 27 C19 25.68 19 24.36 19 23 C18.01 23.99 17.02 24.98 16 26 C14 24 14 24 13.2734375 21.46875 C12.20559969 18.69409239 12.20559969 18.69409239 9.1015625 18.03125 C7.95429688 17.8559375 6.80703125 17.680625 5.625 17.5 C-0.43697835 16.56949317 -0.43697835 16.56949317 -3.37890625 13.59375 C-5.40777675 10.3475572 -5.70538322 8.76204386 -5 5 C-2.5 2.125 -2.5 2.125 0 0 Z " fill="#463ACF" transform="translate(323,193)"/>
<path d="M0 0 C2.82129637 1.75114947 3.03944644 3.13313172 4 6.375 C4 10 4 10 2 12.625 C-0.22022005 14.38267421 -2.40239945 15.93816658 -4.75 17.5 C-7.35899507 19.28271898 -7.89644202 19.68932605 -8.9375 22.8125 C-8.958125 23.534375 -8.97875 24.25625 -9 25 C-7.35 25 -5.7 25 -4 25 C-4 25.33 -4 25.66 -4 26 C-5.98 26 -7.96 26 -10 26 C-10.33 23.36 -10.66 20.72 -11 18 C-10.34 17.67 -9.68 17.34 -9 17 C-9.350625 16.443125 -9.70125 15.88625 -10.0625 15.3125 C-11.21845993 12.46113217 -10.80967438 10.91482778 -10 8 C-13.01031744 7.06576355 -13.86650268 6.95550089 -17 8 C-15.49364535 3.78220697 -12.75987578 2.2252326 -9 0 C-5.45026831 -1.1832439 -3.60040463 -0.90010116 0 0 Z " fill="#5782D8" transform="translate(122,184)"/>
<path d="M0 0 C9.57 0 19.14 0 29 0 C29 2.97 29 5.94 29 9 C23.06 9 17.12 9 11 9 C11 9.99 11 10.98 11 12 C12.60681641 11.98259766 12.60681641 11.98259766 14.24609375 11.96484375 C15.64322743 11.95546701 17.04036299 11.94636669 18.4375 11.9375 C19.14455078 11.92912109 19.85160156 11.92074219 20.58007812 11.91210938 C22.38693559 11.90346412 24.19387603 11.94779989 26 12 C27 13 27 13 27.0625 15.5625 C27.041875 16.366875 27.02125 17.17125 27 18 C26.82726562 17.35546875 26.65453125 16.7109375 26.4765625 16.046875 C25.07017372 13.59554118 25.07017372 13.59554118 21.5234375 13.390625 C20.141427 13.32418219 18.7583219 13.2780748 17.375 13.25 C16.66859375 13.22035156 15.9621875 13.19070312 15.234375 13.16015625 C13.49019953 13.08944643 11.74509173 13.04245965 10 13 C9.67 11.35 9.34 9.7 9 8 C15.27 8 21.54 8 28 8 C28 6.02 28 4.04 28 2 C19.42 2 10.84 2 2 2 C2 11.9 2 21.8 2 32 C10.25 32 18.5 32 27 32 C27.33 30.02 27.66 28.04 28 26 C22.39 26 16.78 26 11 26 C11 25.67 11 25.34 11 25 C16.94 25 22.88 25 29 25 C29 27.64 29 30.28 29 33 C19.43 33 9.86 33 0 33 C0 22.11 0 11.22 0 0 Z " fill="#453DAE" transform="translate(207,191)"/>
<path d="M0 0 C2.875 2.0625 2.875 2.0625 5 5 C5.63127485 8.99807408 5.67917484 11.00735985 3.375 14.375 C0.43721938 16.38506043 -1.4396496 16.92733979 -5 17 C-8.52906067 15.39588152 -9.82772908 14.25840638 -12 11 C-11.92390846 6.81496505 -11.63863176 4.71161825 -8.8125 1.5625 C-5.43724821 -0.31263988 -3.7992366 -0.71235686 0 0 Z " fill="#4948D0" transform="translate(127,233)"/>
<path d="M0 0 C3 2.0625 3 2.0625 5 5 C5 8.57186665 4.74592267 10.88111599 2.75 13.875 C0.43139165 15.36553394 -1.24506837 15.80321917 -4 16 C-7.32567907 15.20817165 -8.67858028 14.38570366 -10.875 11.75 C-12.29067884 8.28945173 -12.15365493 6.53787511 -11 3 C-7.85768284 -0.62575057 -4.58807471 -0.64394031 0 0 Z " fill="#6AB9DA" transform="translate(136,173)"/>
<path d="M0 0 C2.97 0 5.94 0 9 0 C9 6.93 9 13.86 9 21 C4 22 4 22 1.703125 20.640625 C-0.81571947 16.73526064 -0.43442147 13.28960536 -0.25 8.75 C-0.23195313 7.90953125 -0.21390625 7.0690625 -0.1953125 6.203125 C-0.14830798 4.13492605 -0.07656724 2.06731559 0 0 Z " fill="#463BCF" transform="translate(301,193)"/>
<path d="M0 0 C1.485 0.680625 1.485 0.680625 3 1.375 C3 2.365 3 3.355 3 4.375 C2.01 4.87 2.01 4.87 1 5.375 C1 4.715 1 4.055 1 3.375 C0.01 3.375 -0.98 3.375 -2 3.375 C-2 4.695 -2 6.015 -2 7.375 C-2.66 7.375 -3.32 7.375 -4 7.375 C-4 8.035 -4 8.695 -4 9.375 C-3.34 9.375 -2.68 9.375 -2 9.375 C-2 10.695 -2 12.015 -2 13.375 C-0.35 13.045 1.3 12.715 3 12.375 C1.25 16.25 1.25 16.25 -1 17.375 C-8.14136126 18.06609948 -8.14136126 18.06609948 -11.5625 15.3125 C-13 12.375 -13 12.375 -13.25 8.9375 C-11.72901633 4.60269655 -9.94622209 2.88739742 -6.2109375 0.33203125 C-3.68290882 -0.76225678 -2.61461185 -0.7523679 0 0 Z " fill="#4533C2" transform="translate(108,218.625)"/>
<path d="M0 0 C0.66 0 1.32 0 2 0 C2 0.66 2 1.32 2 2 C2.99 2 3.98 2 5 2 C5.33 3.98 5.66 5.96 6 8 C5.071875 8.28875 4.14375 8.5775 3.1875 8.875 C-0.09791667 9.8875 -0.09791667 9.8875 -3 12 C-2.01 12.66 -1.02 13.32 0 14 C0 14.66 0 15.32 0 16 C5.4389165 16.21755666 9.87080814 16.10428384 15 14 C11.32401725 18.010163 7.99862123 20.75923876 3 23 C-0.51927949 22.94134534 -2.85436497 22.62825147 -5.9375 20.9375 C-7.72914456 17.67038345 -7.97906429 14.52731383 -7 11 C-5.32039979 9.20341271 -3.53837679 7.84068416 -1.55859375 6.38671875 C0.30979776 5.02156694 0.30979776 5.02156694 0.4375 2.125 C0.293125 1.42375 0.14875 0.7225 0 0 Z " fill="#5367D0" transform="translate(138,216)"/>
<path d="M0 0 C1.4540625 0.0309375 1.4540625 0.0309375 2.9375 0.0625 C2.6075 2.0425 2.2775 4.0225 1.9375 6.0625 C3.1440625 5.7840625 3.1440625 5.7840625 4.375 5.5 C8.72003084 4.96639972 12.62739724 5.4399296 16.9375 6.0625 C17.2675 7.0525 17.5975 8.0425 17.9375 9.0625 C12.97628678 11.9416693 7.58521921 12.23224019 1.9375 12.0625 C-1.25 10.5625 -1.25 10.5625 -3.0625 8.0625 C-3.9375 4.375 -3.9375 4.375 -4.0625 1.0625 C-3.0625 0.0625 -3.0625 0.0625 0 0 Z " fill="#4338C8" transform="translate(320.0625,211.9375)"/>
<path d="M0 0 C4.62 0 9.24 0 14 0 C16 5 16 5 16 8 C10.72 8 5.44 8 0 8 C-0.33 9.32 -0.66 10.64 -1 12 C-2.17015161 7.90446935 -1.76143048 5.83370162 0 2 C0 1.34 0 0.68 0 0 Z " fill="#3E34C4" transform="translate(218,204)"/>
<path d="M0 0 C3.63 0 7.26 0 11 0 C11 10.89 11 21.78 11 33 C7.37 33 3.74 33 0 33 C0 22.11 0 11.22 0 0 Z M2 2 C2 11.9 2 21.8 2 32 C4.64 32 7.28 32 10 32 C10 22.1 10 12.2 10 2 C7.36 2 4.72 2 2 2 Z " fill="#453CAC" transform="translate(405,191)"/>
<path d="M0 0 C1.49080078 0.02707031 1.49080078 0.02707031 3.01171875 0.0546875 C3.77097656 0.07789063 4.53023437 0.10109375 5.3125 0.125 C5.03155418 1.9391927 4.73743567 3.75135001 4.4375 5.5625 C4.27507812 6.57183594 4.11265625 7.58117187 3.9453125 8.62109375 C3.73648438 9.44738281 3.52765625 10.27367187 3.3125 11.125 C1.3125 12.125 1.3125 12.125 -0.5625 11.9375 C-3.27543967 10.90019954 -4.65205049 9.16044951 -6.6875 7.125 C-7.6775 7.125 -8.6675 7.125 -9.6875 7.125 C-9.375 4.75 -9.375 4.75 -8.6875 2.125 C-5.26655758 -0.15562828 -4.00562778 -0.09425007 0 0 Z " fill="#62C0E3" transform="translate(152.6875,188.875)"/>
<path d="M0 0 C3.63 0 7.26 0 11 0 C11 3.3 11 6.6 11 10 C7.37 10 3.74 10 0 10 C0 6.7 0 3.4 0 0 Z " fill="#443AC0" transform="translate(351,214)"/>
<path d="M0 0 C0.66 0.33 1.32 0.66 2 1 C1.49396008 3.16874252 1.00016187 4.99967627 0 7 C1.670625 6.7215625 1.670625 6.7215625 3.375 6.4375 C7 6 7 6 9 7 C8.66260373 9.530472 8.3938922 10.6818563 6.375 12.3125 C2.95884427 13.30138718 0.43229769 12.81127036 -3 12 C-5.2810942 10.40323406 -5.85499035 9.46139433 -6.6875 6.8125 C-6.790625 6.214375 -6.89375 5.61625 -7 5 C-6.34 5 -5.68 5 -5 5 C-4.731875 4.360625 -4.46375 3.72125 -4.1875 3.0625 C-3 1 -3 1 0 0 Z " fill="#4945C6" transform="translate(94,202)"/>
<path d="M0 0 C1.65 0.33 3.3 0.66 5 1 C5 2.32 5 3.64 5 5 C7.97 5.495 7.97 5.495 11 6 C11 6.99 11 7.98 11 9 C10.01 9.495 10.01 9.495 9 10 C9.99 10.33 10.98 10.66 12 11 C12 10.34 12 9.68 12 9 C12.99 9.33 13.98 9.66 15 10 C14.67 7.69 14.34 5.38 14 3 C17.11429212 5.80286291 18.56171454 8.09330571 20 12 C15.24920084 12.46286541 10.73070169 12.7286245 6 12 C3.35863152 9.69700951 2.13052691 7.28880556 1 4 C-0.32 6.31 -1.64 8.62 -3 11 C-4.25541557 7.23375329 -3.37061958 5.62811066 -2 2 C-1.34 2 -0.68 2 0 2 C0 1.34 0 0.68 0 0 Z " fill="#4238BB" transform="translate(255,212)"/>
<path d="M0 0 C4.29 0 8.58 0 13 0 C11.87047939 5.64760303 11.87047939 5.64760303 8.0625 8.3125 C7.35222656 8.82425781 6.64195313 9.33601562 5.91015625 9.86328125 C4 11 4 11 2 11 C0.80712589 7.12315913 0 4.08378077 0 0 Z " fill="#516DD8" transform="translate(119,214)"/>
<path d="M0 0 C3.3 0 6.6 0 10 0 C10.99 0.99 11.98 1.98 13 3 C13 3.66 13 4.32 13 5 C12.34 5 11.68 5 11 5 C11 4.34 11 3.68 11 3 C7.7 2.67 4.4 2.34 1 2 C1 11.9 1 21.8 1 32 C3.64 32 6.28 32 9 32 C9 28.04 9 24.08 9 20 C9.33 20 9.66 20 10 20 C10 24.29 10 28.58 10 33 C6.7 33 3.4 33 0 33 C0 22.11 0 11.22 0 0 Z " fill="#453DAF" transform="translate(168,191)"/>
<path d="M0 0 C0.66 0 1.32 0 2 0 C2.66 0.99 3.32 1.98 4 3 C4.86625 2.67 5.7325 2.34 6.625 2 C12.02250886 0.40073812 14.93381815 0.46690907 20 3 C20 5.97 20 8.94 20 12 C19.01 12.33 18.02 12.66 17 13 C16.34 12.34 15.68 11.68 15 11 C15.66 11 16.32 11 17 11 C17 9.35 17 7.7 17 6 C13.98968256 5.06576355 13.13349732 4.95550089 10 6 C9.67 5.34 9.34 4.68 9 4 C8.071875 4.20625 7.14375 4.4125 6.1875 4.625 C3 5 3 5 0 3 C0 2.01 0 1.02 0 0 Z " fill="#64A4D9" transform="translate(144,209)"/>
<path d="M0 0 C0.66 0.33 1.32 0.66 2 1 C1.01 2.32 0.02 3.64 -1 5 C0.32 4.67 1.64 4.34 3 4 C2.67 5.32 2.34 6.64 2 8 C2.85464844 8.12117187 3.70929688 8.24234375 4.58984375 8.3671875 C6.24693359 8.61855469 6.24693359 8.61855469 7.9375 8.875 C9.03964844 9.03742188 10.14179688 9.19984375 11.27734375 9.3671875 C12.17582031 9.57601562 13.07429688 9.78484375 14 10 C14.33 10.66 14.66 11.32 15 12 C12.69 12.66 10.38 13.32 8 14 C8.33 12.68 8.66 11.36 9 10 C3.72 10 -1.56 10 -7 10 C-6.67 9.34 -6.34 8.68 -6 8 C-5.34 8.33 -4.68 8.66 -4 9 C-4.33 7.35 -4.66 5.7 -5 4 C-3.35 2.68 -1.7 1.36 0 0 Z " fill="#6983D3" transform="translate(123,204)"/>
<path d="M0 0 C3.96 0 7.92 0 12 0 C12.33 7.59 12.66 15.18 13 23 C15.31 23.66 17.62 24.32 20 25 C20 25.33 20 25.66 20 26 C17.03 26.33 14.06 26.66 11 27 C11 18.42 11 9.84 11 1 C7.7 1 4.4 1 1 1 C1.33 9.25 1.66 17.5 2 26 C-0.23413013 22.64880481 -0.23847762 21.5822245 -0.1953125 17.67578125 C-0.18886719 16.64775391 -0.18242187 15.61972656 -0.17578125 14.56054688 C-0.15064453 12.95276367 -0.15064453 12.95276367 -0.125 11.3125 C-0.11597656 10.22904297 -0.10695313 9.14558594 -0.09765625 8.02929688 C-0.07407452 5.35277052 -0.03820336 2.67635759 0 0 Z " fill="#443AA8" transform="translate(278,191)"/>
<path d="M0 0 C2.82129637 1.75114947 3.03944644 3.13313172 4 6.375 C4 10 4 10 1.5625 12.9375 C0.716875 13.618125 -0.12875 14.29875 -1 15 C-1.33 14.34 -1.66 13.68 -2 13 C-1.34 13 -0.68 13 0 13 C0.20970559 8.85906302 0.20970559 8.85906302 -1 5 C-1.99 5 -2.98 5 -4 5 C-4 3.68 -4 2.36 -4 1 C-8.455 2.485 -8.455 2.485 -13 4 C-8.71928212 -0.5759398 -6.16881368 -1.54220342 0 0 Z " fill="#6492CE" transform="translate(122,184)"/>
<path d="M0 0 C0.66 0.33 1.32 0.66 2 1 C1.41196203 4.02419525 0.77321882 7.01758453 0 10 C-2.31 10 -4.62 10 -7 10 C-6.34 8.35 -5.68 6.7 -5 5 C-6.65 5.33 -8.3 5.66 -10 6 C-10 5.01 -10 4.02 -10 3 C-9.04287109 2.80083984 -9.04287109 2.80083984 -8.06640625 2.59765625 C-7.24011719 2.42105469 -6.41382813 2.24445313 -5.5625 2.0625 C-4.73878906 1.88847656 -3.91507813 1.71445313 -3.06640625 1.53515625 C-1.02338796 1.19247006 -1.02338796 1.19247006 0 0 Z " fill="#61B4E5" transform="translate(137,177)"/>
<path d="M0 0 C0.25 2.3125 0.25 2.3125 0 5 C-1.75 6.875 -1.75 6.875 -4 8 C-6.1875 7.875 -6.1875 7.875 -8 7 C-8.33 6.01 -8.66 5.02 -9 4 C-9.98020375 2.9805881 -10.97803008 1.97753644 -12 1 C-12 0.67 -12 0.34 -12 0 C-3.42857143 -1.28571429 -3.42857143 -1.28571429 0 0 Z " fill="#4539D0" transform="translate(254,193)"/>
<path d="M0 0 C0.33 0.66 0.66 1.32 1 2 C-2 3 -2 3 -5 2.9375 C-8.18467943 2.73510628 -8.18467943 2.73510628 -11 5 C-11.25030977 7.58380177 -11.25030977 7.58380177 -11 10 C-14 10 -17 10 -20 10 C-13.80023298 3.42448953 -9.4110844 -0.82553372 0 0 Z " fill="#6BA9D8" transform="translate(155,187)"/>
<path d="M0 0 C3.62732988 -0.51818998 4.80004811 -0.14663138 7.8125 2.0625 C10 5 10 5 10.5625 8.625 C10 12 10 12 8 13.9375 C7.34 14.288125 6.68 14.63875 6 15 C6.33 13.02 6.66 11.04 7 9 C6.01 8.67 5.02 8.34 4 8 C4.66 7.67 5.32 7.34 6 7 C6.65213292 4.97536745 6.65213292 4.97536745 7 3 C4.69 2.34 2.38 1.68 0 1 C0 0.67 0 0.34 0 0 Z " fill="#4F53BC" transform="translate(122,233)"/>
<path d="M0 0 C0.66 0 1.32 0 2 0 C2 0.66 2 1.32 2 2 C2.99 2 3.98 2 5 2 C5.33 3.98 5.66 5.96 6 8 C4 9 4 9 1.625 8.3125 C-1.09146627 7.69471911 -1.09146627 7.69471911 -3.25 9.5625 C-5.29733158 12.41414041 -5.6852134 14.53734736 -6 18 C-6.33 18 -6.66 18 -7 18 C-7.4375 14.875 -7.4375 14.875 -7 11 C-5.31526848 9.24348794 -3.50500315 7.87874481 -1.55859375 6.421875 C0.30516871 5.02096125 0.30516871 5.02096125 0.4375 2.125 C0.293125 1.42375 0.14875 0.7225 0 0 Z " fill="#617DCB" transform="translate(138,216)"/>
<path d="M0 0 C-0.33 2.64 -0.66 5.28 -1 8 C-1.66 7.67 -2.32 7.34 -3 7 C-4.32 8.65 -5.64 10.3 -7 12 C-7.33 10.35 -7.66 8.7 -8 7 C-7.34 6.67 -6.68 6.34 -6 6 C-6 4.35 -6 2.7 -6 1 C-4 0 -4 0 0 0 Z " fill="#473CD3" transform="translate(379,203)"/>
<path d="M0 0 C0.33 0.99 0.66 1.98 1 3 C-1.34610254 4.89492898 -3.41610327 6.18765441 -6.1875 7.4375 C-9.16033449 8.67058242 -9.16033449 8.67058242 -9.6875 11.125 C-9.790625 11.74375 -9.89375 12.3625 -10 13 C-10.99 13.33 -11.98 13.66 -13 14 C-13.33 14.66 -13.66 15.32 -14 16 C-14.66 15.67 -15.32 15.34 -16 15 C-13.79712364 9.51269065 -11.11865276 7.18677446 -6.3125 4.125 C-5.70599609 3.7228125 -5.09949219 3.320625 -4.47460938 2.90625 C-2.99120149 1.92509833 -1.49668248 0.96078048 0 0 Z " fill="#5454BA" transform="translate(103,191)"/>
<path d="M0 0 C0.33 0 0.66 0 1 0 C1.66 1.98 2.32 3.96 3 6 C4.32 6 5.64 6 7 6 C7 7.32 7 8.64 7 10 C8.65 10.33 10.3 10.66 12 11 C10.375 12.125 10.375 12.125 8 13 C4.30560556 12.32143776 2.52732745 11.61238026 0.0625 8.75 C-1.23052342 5.40335115 -0.87794657 3.43197297 0 0 Z " fill="#63ABD4" transform="translate(125,176)"/>
<path d="M0 0 C3.96 0 7.92 0 12 0 C10.31482096 4.2129476 8.56523798 7.32315889 6 11 C5.67 9.68 5.34 8.36 5 7 C5.66 7 6.32 7 7 7 C6.67 5.68 6.34 4.36 6 3 C3.69 2.67 1.38 2.34 -1 2 C-0.67 1.34 -0.34 0.68 0 0 Z " fill="#453CA9" transform="translate(262,191)"/>
<path d="M0 0 C0.66 0.33 1.32 0.66 2 1 C2.88082902 5.93264249 2.88082902 5.93264249 2 9 C-1.01759593 12.13406454 -4.39512742 14.57958555 -8 17 C-8 14.37886292 -7.68707555 12.49064888 -7 10 C-5.35 10 -3.7 10 -2 10 C-1.34 6.7 -0.68 3.4 0 0 Z " fill="#6EB1D2" transform="translate(157,190)"/>
<path d="M0 0 C0.99 0.33 1.98 0.66 3 1 C3.66 4.3 4.32 7.6 5 11 C3.68 11 2.36 11 1 11 C-1.43769218 7.34346173 -1.23944439 5.30999899 -1 1 C-0.67 0.67 -0.34 0.34 0 0 Z " fill="#4337CC" transform="translate(118,237)"/>
<path d="M0 0 C2.4375 0.625 2.4375 0.625 5 2 C5.8125 5.125 5.8125 5.125 6 8 C3.1875 8.625 3.1875 8.625 0 9 C-0.99 8.34 -1.98 7.68 -3 7 C-2.01 6.67 -1.02 6.34 0 6 C0 4.02 0 2.04 0 0 Z " fill="#473FCE" transform="translate(122,241)"/>
<path d="M0 0 C1.9375 1.125 1.9375 1.125 4 3 C4.75 6.1875 4.75 6.1875 5 9 C3.22992286 9.08114106 1.45877902 9.13925505 -0.3125 9.1875 C-1.29863281 9.22230469 -2.28476562 9.25710937 -3.30078125 9.29296875 C-6 9 -6 9 -7.85546875 7.61328125 C-9 6 -9 6 -9 4 C-7.68 3.67 -6.36 3.34 -5 3 C-5 4.65 -5 6.3 -5 8 C-3.02 8 -1.04 8 1 8 C0.67 5.36 0.34 2.72 0 0 Z " fill="#3F35B2" transform="translate(342,193)"/>
<path d="M0 0 C4.62 0 9.24 0 14 0 C10.55549263 2.29633824 8.06187717 2.54016485 4 3 C4 3.66 4 4.32 4 5 C5.32 5.66 6.64 6.32 8 7 C8 8.65 8 10.3 8 12 C4.78119883 8.2064129 2.3836813 4.34170523 0 0 Z " fill="#463DAB" transform="translate(239,191)"/>
<path d="M0 0 C0.928125 0.20625 1.85625 0.4125 2.8125 0.625 C2.4825 1.945 2.1525 3.265 1.8125 4.625 C-1.62265002 5.24957273 -4.67814814 5.625 -8.1875 5.625 C-6.37307853 1.43787353 -4.89236161 -0.57557195 0 0 Z " fill="#5785DB" transform="translate(130.1875,203.375)"/>
<path d="M0 0 C0.33 0 0.66 0 1 0 C1 2.64 1 5.28 1 8 C0.34 8 -0.32 8 -1 8 C-0.9175 8.66 -0.835 9.32 -0.75 10 C-1.10103641 14.21243694 -2.96960773 17.34710677 -5 21 C-5.66 21 -6.32 21 -7 21 C-4.96192707 13.8821847 -2.59655258 6.93292719 0 0 Z " fill="#3E34AC" transform="translate(374,196)"/>
<path d="M0 0 C3 0 3 0 6 1 C7.6875 3.5625 7.6875 3.5625 9 6 C6.83125748 5.49396008 5.00032373 5.00016187 3 4 C3.33 5.65 3.66 7.3 4 9 C3.01 9.495 3.01 9.495 2 10 C2 8.35 2 6.7 2 5 C0.68 4.34 -0.64 3.68 -2 3 C-1.34 3 -0.68 3 0 3 C0 2.01 0 1.02 0 0 Z " fill="#5057C7" transform="translate(103,208)"/>
<path d="M0 0 C0.66 0.33 1.32 0.66 2 1 C0.7625 2.051875 0.7625 2.051875 -0.5 3.125 C-3.23704192 5.76357072 -3.23704192 5.76357072 -3.5 9.0625 C-2.94870735 12.3013443 -2.35505503 13.72905408 0 16 C2.09415804 16.79623822 2.09415804 16.79623822 4 17 C4 17.66 4 18.32 4 19 C1.06214703 18.67357189 -0.81876259 18.1175594 -3.3125 16.5 C-5.48230792 13.28546975 -5.61770899 11.01713692 -5.47265625 7.1953125 C-4.73024693 3.7470973 -2.70902496 2.09949435 0 0 Z " fill="#3F37A6" transform="translate(322,192)"/>
<path d="M0 0 C1.010625 0.433125 2.02125 0.86625 3.0625 1.3125 C3.0625 2.3025 3.0625 3.2925 3.0625 4.3125 C2.0725 4.8075 2.0725 4.8075 1.0625 5.3125 C1.0625 4.6525 1.0625 3.9925 1.0625 3.3125 C0.14017578 3.42078125 0.14017578 3.42078125 -0.80078125 3.53125 C-1.60902344 3.6240625 -2.41726562 3.716875 -3.25 3.8125 C-4.05050781 3.9053125 -4.85101563 3.998125 -5.67578125 4.09375 C-7.9375 4.3125 -7.9375 4.3125 -10.9375 4.3125 C-5.17820022 -0.9041302 -5.17820022 -0.9041302 0 0 Z " fill="#4946D0" transform="translate(107.9375,218.6875)"/>
<path d="M0 0 C1.051875 0.185625 2.10375 0.37125 3.1875 0.5625 C6.57119882 0.95079331 8.76425888 0.88247485 12 0 C8.87378374 3.39417765 6.43458973 5.6062718 2 7 C1.34 4.69 0.68 2.38 0 0 Z " fill="#5162CC" transform="translate(119,218)"/>
<path d="M0 0 C1.9375 0.125 1.9375 0.125 4 1 C5.1875 3.375 5.1875 3.375 6 6 C6.33 6.99 6.66 7.98 7 9 C3.71303767 9.79953138 2.28976808 10.09658936 -1 9 C0.32 7.35 1.64 5.7 3 4 C1.68 3.01 0.36 2.02 -1 1 C-0.67 0.67 -0.34 0.34 0 0 Z " fill="#483CD5" transform="translate(391,212)"/>
<path d="M0 0 C0.66 0.33 1.32 0.66 2 1 C2 2.65 2 4.3 2 6 C-1.3 6.33 -4.6 6.66 -8 7 C-5.42215154 4.35247996 -3.08351902 2.05567935 0 0 Z " fill="#6894CE" transform="translate(133,197)"/>
<path d="M0 0 C0.33 1.32 0.66 2.64 1 4 C-0.32 4 -1.64 4 -3 4 C-3 5.093125 -3 6.18625 -3 7.3125 C-3 9.54166667 -3 11.77083333 -3 14 C-4.5625 12.4375 -4.5625 12.4375 -6 10 C-5.87456151 6.42500295 -5.72132848 3.97222534 -3.5625 1.0625 C-2 0 -2 0 0 0 Z " fill="#524BB1" transform="translate(121,234)"/>
<path d="M0 0 C0.66 0.33 1.32 0.66 2 1 C-0.64 2.98 -3.28 4.96 -6 7 C-7.32 6.34 -8.64 5.68 -10 5 C-9.67 4.01 -9.34 3.02 -9 2 C-7.88625 1.855625 -6.7725 1.71125 -5.625 1.5625 C-2.17857953 1.21627965 -2.17857953 1.21627965 0 0 Z " fill="#5876C6" transform="translate(151,230)"/>
<path d="M0 0 C1.46015291 0.28241641 2.91809793 0.57626614 4.375 0.875 C5.18710937 1.03742188 5.99921875 1.19984375 6.8359375 1.3671875 C9 2 9 2 11 4 C11 5.32 11 6.64 11 8 C9.68 7.67 8.36 7.34 7 7 C7.99 7 8.98 7 10 7 C10 6.34 10 5.68 10 5 C6.7 4.34 3.4 3.68 0 3 C0 2.01 0 1.02 0 0 Z " fill="#3E34BA" transform="translate(326,209)"/>
<path d="M0 0 C3.63 0 7.26 0 11 0 C11 0.99 11 1.98 11 3 C9.54176788 3.0270043 8.08339325 3.04639787 6.625 3.0625 C5.81289062 3.07410156 5.00078125 3.08570313 4.1640625 3.09765625 C2 3 2 3 0 2 C0 1.34 0 0.68 0 0 Z " fill="#7396DC" transform="translate(125,210)"/>
<path d="M0 0 C3.875 1.75 3.875 1.75 5 4 C5 3.01 5 2.02 5 1 C5.66 1 6.32 1 7 1 C8 4 8 4 8 8 C7.67 8.66 7.34 9.32 7 10 C5.82739389 8.71372289 4.6620717 7.42080217 3.5 6.125 C2.8503125 5.40570313 2.200625 4.68640625 1.53125 3.9453125 C0 2 0 2 0 0 Z " fill="#4438B9" transform="translate(179,209)"/>
<path d="M0 0 C0 1.65 0 3.3 0 5 C-1.8125 5.625 -1.8125 5.625 -4 6 C-4.99 5.34 -5.98 4.68 -7 4 C-7 3.34 -7 2.68 -7 2 C-4 0 -4 0 0 0 Z " fill="#588BDC" transform="translate(118,185)"/>
<path d="M0 0 C0.66 0.66 1.32 1.32 2 2 C0.68 2 -0.64 2 -2 2 C-2 2.66 -2 3.32 -2 4 C-5 3 -5 3 -7 1 C-9.68839385 0.73008094 -12.29141936 0.91262643 -15 1 C-15 0.67 -15 0.34 -15 0 C-10.08739375 -1.47378188 -4.97436509 -1.01248139 0 0 Z " fill="#4036B2" transform="translate(339,191)"/>
<path d="M0 0 C1.32 0.33 2.64 0.66 4 1 C3.0409375 1.5878125 3.0409375 1.5878125 2.0625 2.1875 C-0.43778819 4.38472296 -0.64950425 5.75791433 -1 9 C0.65 9 2.3 9 4 9 C4 9.33 4 9.66 4 10 C2.02 10 0.04 10 -2 10 C-2.33 7.36 -2.66 4.72 -3 2 C-2.01 2 -1.02 2 0 2 C0 1.34 0 0.68 0 0 Z " fill="#5E74BC" transform="translate(114,200)"/>
<path d="M0 0 C0.33 0.66 0.66 1.32 1 2 C-2 3 -2 3 -4.875 2.9375 C-8.08927906 3.00178558 -10.11706996 3.64332704 -13 5 C-8.7797731 -0.27528362 -6.38501231 -0.54110274 0 0 Z " fill="#79BBCF" transform="translate(155,187)"/>
<path d="M0 0 C0.66 0.33 1.32 0.66 2 1 C1.01 2.32 0.02 3.64 -1 5 C0.32 4.67 1.64 4.34 3 4 C3 4.66 3 5.32 3 6 C1.02 6.33 -0.96 6.66 -3 7 C-3.66 6.01 -4.32 5.02 -5 4 C-3.35 2.68 -1.7 1.36 0 0 Z " fill="#647FCF" transform="translate(123,204)"/>
<path d="M0 0 C0 0.99 0 1.98 0 3 C0.89781874 4.79340513 0.89781874 4.79340513 2.0625 6.5625 C2.701875 7.696875 3.34125 8.83125 4 10 C3.67 10.66 3.34 11.32 3 12 C-1.92307692 7.81538462 -1.92307692 7.81538462 -2.3125 3.6875 C-2.209375 2.800625 -2.10625 1.91375 -2 1 C-1.34 0.67 -0.68 0.34 0 0 Z " fill="#433AAF" transform="translate(265,203)"/>
<path d="M0 0 C1.65 0 3.3 0 5 0 C4.67 0.99 4.34 1.98 4 3 C3.67 2.67 3.34 2.34 3 2 C1.68 4.31 0.36 6.62 -1 9 C-2.25541557 5.23375329 -1.37061958 3.62811066 0 0 Z " fill="#4038AE" transform="translate(253,214)"/>
<path d="M0 0 C1.65 0 3.3 0 5 0 C4.64950425 3.24208567 4.43778819 4.61527704 1.9375 6.8125 C1.298125 7.204375 0.65875 7.59625 0 8 C0.185625 7.05125 0.37125 6.1025 0.5625 5.125 C1.28686632 2.10131207 1.28686632 2.10131207 0 0 Z " fill="#3F38AC" transform="translate(306,214)"/>
<path d="M0 0 C1.65 0.33 3.3 0.66 5 1 C5 1.66 5 2.32 5 3 C2.1875 3.625 2.1875 3.625 -1 4 C-1.99 3.34 -2.98 2.68 -4 2 C-2.68 2 -1.36 2 0 2 C0 1.34 0 0.68 0 0 Z " fill="#4B3FB2" transform="translate(123,246)"/>
<path d="M0 0 C2 1 2 1 3 3 C-1.95 4.485 -1.95 4.485 -7 6 C-2.25 1.125 -2.25 1.125 0 0 Z " fill="#4A41B2" transform="translate(104,218)"/>
<path d="M0 0 C0 0.66 0 1.32 0 2 C-2.64 2 -5.28 2 -8 2 C-7.67 1.01 -7.34 0.02 -7 -1 C-3.62895826 -2.46078476 -3.21850792 -2.14567195 0 0 Z " fill="#517CD7" transform="translate(130,207)"/>
<path d="M0 0 C1.65 0.33 3.3 0.66 5 1 C4.01 2.485 4.01 2.485 3 4 C1.33333333 4 -0.33333333 4 -2 4 C-1.34 2.68 -0.68 1.36 0 0 Z " fill="#5D7BD0" transform="translate(107,188)"/>
<path d="M0 0 C0.66 0.33 1.32 0.66 2 1 C-0.31 2.65 -2.62 4.3 -5 6 C-5 4.68 -5 3.36 -5 2 C-2.625 0.9375 -2.625 0.9375 0 0 Z " fill="#5A6DBC" transform="translate(129,218)"/>
<path d="M0 0 C0.33 0.99 0.66 1.98 1 3 C-0.32 3.99 -1.64 4.98 -3 6 C-3.66 5.67 -4.32 5.34 -5 5 C-3.35 3.35 -1.7 1.7 0 0 Z " fill="#5D6CC1" transform="translate(103,191)"/>
<path d="M0 0 C0.33 0 0.66 0 1 0 C0.6875 3.375 0.6875 3.375 0 7 C-0.99 7.66 -1.98 8.32 -3 9 C-2.44271087 5.65626525 -1.64826111 2.96687001 0 0 Z " fill="#77B3CD" transform="translate(140,178)"/>
<path d="M0 0 C0.33 0 0.66 0 1 0 C1.33 3.3 1.66 6.6 2 10 C1.34 9.67 0.68 9.34 0 9 C-0.85056945 5.44307323 -1.16909807 3.50729422 0 0 Z " fill="#6EA9CC" transform="translate(125,176)"/>
</svg>
