<svg version="1.1" id="Layer_1" xmlns="http://www.w3.org/2000/svg" xmlns:xlink="http://www.w3.org/1999/xlink" x="0px" y="0px"
	 width="100%" viewBox="0 0 500 500" enable-background="new 0 0 500 500" xml:space="preserve">
<path fill="#FFFFFF" opacity="1.000000" stroke="none" 
	d="
M279.000000,501.000000 
	C186.000015,501.000000 93.500046,501.000000 1.000050,501.000000 
	C1.000033,334.333405 1.000033,167.666794 1.000017,1.000139 
	C167.666565,1.000093 334.333130,1.000093 500.999756,1.000046 
	C500.999847,167.666519 500.999847,334.333038 500.999939,500.999786 
	C427.166656,501.000000 353.333344,501.000000 279.000000,501.000000 
M81.612160,264.647125 
	C85.334007,259.505188 85.077187,255.195969 80.839478,251.682205 
	C76.890320,248.407700 72.453026,248.905151 67.651924,253.519333 
	C64.869301,258.633179 65.356606,262.955627 69.041908,265.848907 
	C72.745232,268.756348 76.596443,268.423035 81.612160,264.647125 
M100.657845,250.934738 
	C102.799103,249.359634 104.940369,247.784531 107.768684,246.053375 
	C111.492409,243.312958 115.216125,240.572540 119.601692,237.664841 
	C124.432755,233.496902 125.169983,228.387878 121.527542,224.318527 
	C117.667656,220.006241 112.715881,220.185532 106.863091,224.887054 
	C102.231873,225.544662 100.760811,222.978409 101.333374,218.527008 
	C105.194878,215.504776 109.168533,212.613434 112.888657,209.426193 
	C117.242752,205.695786 117.793068,201.367966 114.809616,197.116898 
	C112.081665,193.229889 107.017143,192.191132 102.463150,195.148422 
	C98.058006,198.009048 94.007019,201.415024 89.144073,204.835449 
	C85.780174,207.304733 82.416275,209.774033 78.392342,212.361771 
	C73.922073,215.329193 69.451813,218.296616 64.323021,220.994751 
	C62.903477,220.001572 61.483929,219.008392 60.423592,217.484283 
	C60.336403,216.648926 60.249214,215.813553 60.614212,214.483765 
	C60.780079,214.072617 60.945946,213.661469 61.768784,213.037979 
	C63.835255,211.302032 65.901726,209.566101 68.354485,207.596191 
	C68.618721,207.444931 68.852386,207.255875 69.027122,207.012619 
	C69.027122,207.012619 69.036674,207.049469 69.750618,207.082214 
	C74.233635,204.814987 77.758583,201.539352 76.063286,196.213867 
	C75.235161,193.612411 72.649025,190.791733 70.143326,189.674332 
	C65.692513,187.689575 61.914337,190.240814 58.256794,194.018219 
	C55.066246,196.297440 51.875702,198.576660 48.101036,201.199585 
	C44.423241,203.856293 40.745445,206.512985 36.429874,209.384109 
	C32.036091,213.563263 31.252033,218.189957 34.274590,222.102203 
	C37.492367,226.267075 42.244320,226.534729 48.755318,222.933624 
	C53.048729,222.751785 54.072433,225.428909 53.596573,229.479691 
	C51.972130,230.953110 50.347683,232.426544 48.061817,234.039505 
	C41.751522,238.426468 40.032162,243.507507 43.287323,248.149094 
	C46.707207,253.025558 52.337936,253.088608 58.591057,248.294586 
	C59.106579,247.899384 59.507957,247.355301 60.626930,246.759995 
	C62.740959,245.150574 64.854988,243.541153 67.644814,241.824890 
	C71.457573,238.946121 75.270332,236.067352 79.770233,233.035278 
	C83.166412,230.930283 86.562584,228.825302 90.686638,226.962250 
	C93.877113,227.799896 94.562843,230.139236 93.985367,233.659302 
	C92.510696,235.026230 91.036026,236.393158 88.875938,237.890671 
	C83.519180,242.273560 82.574471,247.075027 86.218475,251.397202 
	C89.895706,255.758728 94.838196,255.587646 100.657845,250.934738 
M265.160004,195.549850 
	C256.326538,193.602692 249.686356,197.035156 244.286316,205.237274 
	C239.093796,196.613220 232.131485,193.426392 222.969345,195.911224 
	C227.803680,201.009766 232.621002,206.090347 236.447861,210.126343 
	C231.623703,215.303070 226.815063,220.463165 221.860001,225.780380 
	C221.643158,223.639587 221.433487,221.569702 221.175079,219.018463 
	C213.044815,219.018463 205.140778,219.018463 197.379944,219.018463 
	C196.080460,215.080185 197.595215,214.144409 200.845367,214.255020 
	C205.797806,214.423569 210.760193,214.299179 215.849609,214.299179 
	C215.849609,212.071259 215.849609,210.319473 215.849609,208.085388 
	C209.510269,208.085388 203.421265,208.085388 196.903610,208.085388 
	C197.046249,206.216583 197.149429,204.864746 197.281906,203.129181 
	C204.998199,203.129181 212.268555,203.129181 219.589294,203.129181 
	C219.589294,200.441666 219.589294,198.177872 219.589294,195.776031 
	C207.460907,195.776031 195.600433,195.776031 183.839111,195.776031 
	C183.839111,206.389023 183.839111,216.590912 183.839111,226.977295 
	C196.243164,226.977295 208.228378,226.754318 220.200882,227.048431 
	C229.629471,227.280060 239.069153,228.221024 244.075027,216.489700 
	C249.901596,225.005600 256.238770,229.730682 266.994385,225.817673 
	C261.425415,220.476334 256.302490,215.562805 251.289917,210.755112 
	C256.208344,205.758255 261.081879,200.807007 267.008636,196.229492 
	C267.248749,198.012466 267.629883,199.789948 267.699860,201.579575 
	C267.849457,205.404846 267.687836,209.245651 267.922363,213.063583 
	C268.494995,222.384369 273.536560,226.704102 284.736481,227.688736 
	C297.427429,228.804428 306.079285,224.959152 307.379883,216.404785 
	C308.404236,209.667160 307.585632,202.649323 307.585632,195.799133 
	C303.280090,195.799133 299.233887,195.799133 294.914307,195.799133 
	C294.914307,201.183624 295.027313,206.172028 294.884674,211.153107 
	C294.719635,216.916443 292.465393,219.241486 287.572968,219.078400 
	C283.010681,218.926300 281.097870,216.632843 281.012848,210.962311 
	C280.936737,205.885468 280.996826,200.806580 280.996826,195.151215 
	C275.471985,195.467377 270.713928,195.739685 265.160004,195.549850 
M136.574814,227.011871 
	C139.049759,227.011871 141.524704,227.011871 144.796234,227.011871 
	C144.796234,220.228760 144.796234,213.792160 144.796234,206.130280 
	C150.440979,212.874390 155.087769,218.517487 159.858902,224.053436 
	C160.875824,225.233368 162.291565,226.764404 163.615417,226.859879 
	C168.342178,227.200760 173.108505,226.993271 177.800552,226.993271 
	C177.800552,216.150650 177.800552,206.039597 177.800552,195.654205 
	C173.503479,195.654205 169.429108,195.654205 164.742233,195.654205 
	C164.742233,202.272446 164.742233,208.625275 164.742233,216.529938 
	C158.938309,209.634033 154.203796,203.913010 149.338501,198.305450 
	C148.313522,197.124100 146.863037,195.634827 145.515213,195.533844 
	C140.921524,195.189651 136.286118,195.402130 131.445343,195.402130 
	C131.445343,206.167923 131.445343,216.383148 131.445343,226.801971 
	C133.029099,226.881378 134.330124,226.946594 136.574814,227.011871 
M311.090332,219.455551 
	C316.996246,228.916656 337.742371,230.959366 345.312561,222.804245 
	C345.984161,222.080780 346.558380,221.235336 347.035706,220.368317 
	C349.816254,215.317780 348.470673,210.912704 343.005249,209.253387 
	C338.756927,207.963608 334.192108,207.717682 329.768982,207.001556 
	C328.135376,206.737076 326.504608,206.454773 324.872559,206.180588 
	C324.905151,205.530060 324.937744,204.879532 324.970337,204.229004 
	C327.543121,204.229004 330.135468,204.025909 332.684479,204.271973 
	C337.731323,204.759155 342.754242,205.494476 348.942505,206.272476 
	C347.545502,203.425003 347.110626,202.155334 346.373230,201.096268 
	C340.466217,192.612152 318.614288,192.416962 312.469177,200.758621 
	C308.277985,206.447968 310.076416,211.976730 316.932281,213.768646 
	C319.965973,214.561569 323.177551,214.673767 326.308228,215.095688 
	C328.829315,215.435410 331.350250,215.776199 333.871246,216.116531 
	C333.875580,216.813873 333.879944,217.511215 333.884308,218.208557 
	C331.395447,218.316910 328.892700,218.644501 326.420685,218.487656 
	C321.390137,218.168503 316.377014,217.576859 311.349884,217.184998 
	C311.235596,217.176102 311.040009,218.209808 311.090332,219.455551 
M391.480164,221.927139 
	C395.796112,222.291641 401.069763,220.046280 403.250122,226.299103 
	C403.384033,226.683151 404.374329,226.951599 404.971283,226.961288 
	C408.660980,227.021133 412.352173,226.991348 416.949127,226.991348 
	C410.131927,216.340683 404.073547,206.630859 397.735474,197.107147 
	C395.539856,193.807968 385.017365,194.734604 382.760559,198.210953 
	C377.599762,206.160553 372.510468,214.156662 367.411896,222.146484 
	C366.509094,223.561218 365.701660,225.036819 364.664154,226.800613 
	C373.429321,227.245743 373.409241,227.215347 380.647217,222.433731 
	C381.393646,221.940598 382.556335,221.977188 383.530945,221.949814 
	C385.859192,221.884430 388.190460,221.927689 391.480164,221.927139 
M419.146851,198.849213 
	C419.146851,208.093811 419.146851,217.338409 419.146851,226.635529 
	C423.898743,226.635529 428.080994,226.635529 432.186768,226.635529 
	C432.186768,216.060638 432.186768,205.869186 432.186768,195.375870 
	C428.485291,195.375870 425.162720,195.183502 421.887665,195.493271 
	C420.907318,195.585968 420.059692,197.081299 419.146851,198.849213 
M81.661026,193.211411 
	C85.619537,194.856857 89.521881,194.412033 91.954330,190.986954 
	C93.470573,188.851959 94.320953,185.500381 93.933372,182.926163 
	C93.305466,178.755753 89.844292,176.479660 85.693146,176.319321 
	C81.536858,176.158829 78.265839,178.241638 76.832245,182.259125 
	C75.201233,186.829895 77.092751,190.301559 81.661026,193.211411 
M354.979095,226.776566 
	C355.200256,224.941681 355.421417,223.106781 355.653229,221.183640 
	C353.186066,221.183640 351.433197,221.183640 349.494690,221.183640 
	C349.494690,223.193848 349.494690,224.919754 349.494690,227.020981 
	C351.239960,227.020981 352.701599,227.020981 354.979095,226.776566 
z"/>
<path fill="#4D41D1" opacity="1.000000" stroke="none" 
	d="
M265.955383,195.855728 
	C261.081879,200.807007 256.208344,205.758255 251.289917,210.755112 
	C256.302490,215.562805 261.425415,220.476334 266.994385,225.817673 
	C256.238770,229.730682 249.901596,225.005600 244.075027,216.489700 
	C239.069153,228.221024 229.629471,227.280060 220.200882,227.048431 
	C208.228378,226.754318 196.243164,226.977295 183.839111,226.977295 
	C183.839111,216.590912 183.839111,206.389023 183.839111,195.776031 
	C195.600433,195.776031 207.460907,195.776031 219.589294,195.776031 
	C219.589294,198.177872 219.589294,200.441666 219.589294,203.129181 
	C212.268555,203.129181 204.998199,203.129181 197.281906,203.129181 
	C197.149429,204.864746 197.046249,206.216583 196.903610,208.085388 
	C203.421265,208.085388 209.510269,208.085388 215.849609,208.085388 
	C215.849609,210.319473 215.849609,212.071259 215.849609,214.299179 
	C210.760193,214.299179 205.797806,214.423569 200.845367,214.255020 
	C197.595215,214.144409 196.080460,215.080185 197.379944,219.018463 
	C205.140778,219.018463 213.044815,219.018463 221.175079,219.018463 
	C221.433487,221.569702 221.643158,223.639587 221.860001,225.780380 
	C226.815063,220.463165 231.623703,215.303070 236.447861,210.126343 
	C232.621002,206.090347 227.803680,201.009766 222.969345,195.911224 
	C232.131485,193.426392 239.093796,196.613220 244.286316,205.237274 
	C249.686356,197.035156 256.326538,193.602692 265.570496,195.757767 
	C265.980957,195.965683 265.955353,195.855713 265.955383,195.855728 
z"/>
<path fill="#4C40D1" opacity="1.000000" stroke="none" 
	d="
M136.102966,227.011841 
	C134.330124,226.946594 133.029099,226.881378 131.445343,226.801971 
	C131.445343,216.383148 131.445343,206.167923 131.445343,195.402130 
	C136.286118,195.402130 140.921524,195.189651 145.515213,195.533844 
	C146.863037,195.634827 148.313522,197.124100 149.338501,198.305450 
	C154.203796,203.913010 158.938309,209.634033 164.742233,216.529938 
	C164.742233,208.625275 164.742233,202.272446 164.742233,195.654205 
	C169.429108,195.654205 173.503479,195.654205 177.800552,195.654205 
	C177.800552,206.039597 177.800552,216.150650 177.800552,226.993271 
	C173.108505,226.993271 168.342178,227.200760 163.615417,226.859879 
	C162.291565,226.764404 160.875824,225.233368 159.858902,224.053436 
	C155.087769,218.517487 150.440979,212.874390 144.796234,206.130280 
	C144.796234,213.792160 144.796234,220.228760 144.796234,227.011871 
	C141.524704,227.011871 139.049759,227.011871 136.102966,227.011841 
z"/>
<path fill="#4D41D1" opacity="1.000000" stroke="none" 
	d="
M310.986328,219.106369 
	C311.040009,218.209808 311.235596,217.176102 311.349884,217.184998 
	C316.377014,217.576859 321.390137,218.168503 326.420685,218.487656 
	C328.892700,218.644501 331.395447,218.316910 333.884308,218.208557 
	C333.879944,217.511215 333.875580,216.813873 333.871246,216.116531 
	C331.350250,215.776199 328.829315,215.435410 326.308228,215.095688 
	C323.177551,214.673767 319.965973,214.561569 316.932281,213.768646 
	C310.076416,211.976730 308.277985,206.447968 312.469177,200.758621 
	C318.614288,192.416962 340.466217,192.612152 346.373230,201.096268 
	C347.110626,202.155334 347.545502,203.425003 348.942505,206.272476 
	C342.754242,205.494476 337.731323,204.759155 332.684479,204.271973 
	C330.135468,204.025909 327.543121,204.229004 324.970337,204.229004 
	C324.937744,204.879532 324.905151,205.530060 324.872559,206.180588 
	C326.504608,206.454773 328.135376,206.737076 329.768982,207.001556 
	C334.192108,207.717682 338.756927,207.963608 343.005249,209.253387 
	C348.470673,210.912704 349.816254,215.317780 347.035706,220.368317 
	C346.558380,221.235336 345.984161,222.080780 345.312561,222.804245 
	C337.742371,230.959366 316.996246,228.916656 310.986328,219.106369 
z"/>
<path fill="#4C40D1" opacity="1.000000" stroke="none" 
	d="
M266.481995,196.042603 
	C265.955353,195.855713 265.980957,195.965683 265.968414,195.988831 
	C270.713928,195.739685 275.471985,195.467377 280.996826,195.151215 
	C280.996826,200.806580 280.936737,205.885468 281.012848,210.962311 
	C281.097870,216.632843 283.010681,218.926300 287.572968,219.078400 
	C292.465393,219.241486 294.719635,216.916443 294.884674,211.153107 
	C295.027313,206.172028 294.914307,201.183624 294.914307,195.799133 
	C299.233887,195.799133 303.280090,195.799133 307.585632,195.799133 
	C307.585632,202.649323 308.404236,209.667160 307.379883,216.404785 
	C306.079285,224.959152 297.427429,228.804428 284.736481,227.688736 
	C273.536560,226.704102 268.494995,222.384369 267.922363,213.063583 
	C267.687836,209.245651 267.849457,205.404846 267.699860,201.579575 
	C267.629883,199.789948 267.248749,198.012466 266.481995,196.042603 
z"/>
<path fill="#4C40D1" opacity="1.000000" stroke="none" 
	d="
M391.000336,221.927124 
	C388.190460,221.927689 385.859192,221.884430 383.530945,221.949814 
	C382.556335,221.977188 381.393646,221.940598 380.647217,222.433731 
	C373.409241,227.215347 373.429321,227.245743 364.664154,226.800613 
	C365.701660,225.036819 366.509094,223.561218 367.411896,222.146484 
	C372.510468,214.156662 377.599762,206.160553 382.760559,198.210953 
	C385.017365,194.734604 395.539856,193.807968 397.735474,197.107147 
	C404.073547,206.630859 410.131927,216.340683 416.949127,226.991348 
	C412.352173,226.991348 408.660980,227.021133 404.971283,226.961288 
	C404.374329,226.951599 403.384033,226.683151 403.250122,226.299103 
	C401.069763,220.046280 395.796112,222.291641 391.000336,221.927124 
M387.387390,210.141281 
	C386.883789,211.280945 386.380188,212.420593 385.799255,213.735275 
	C389.257568,213.735275 392.272858,213.735275 395.923615,213.735275 
	C394.028931,210.531372 392.422363,207.814667 390.581604,204.701935 
	C389.444977,206.678268 388.629517,208.096237 387.387390,210.141281 
z"/>
<path fill="#5F91DC" opacity="1.000000" stroke="none" 
	d="
M118.939850,237.832123 
	C115.216125,240.572540 111.492409,243.312958 107.395828,245.748749 
	C104.240425,239.823532 100.775574,234.900909 94.325661,233.031906 
	C94.562843,230.139236 93.877113,227.799896 90.212952,226.476852 
	C84.813766,225.685181 79.888275,225.378922 74.566856,225.059906 
	C73.114616,225.039948 72.058296,225.032745 71.005615,224.617432 
	C72.160706,223.140610 73.147720,221.635559 74.508652,221.122665 
	C75.944763,220.581436 77.757271,221.137711 79.367989,220.927841 
	C80.537460,220.775467 82.297417,220.427811 82.611496,219.674301 
	C82.976616,218.798340 82.204094,217.305420 81.647118,216.223465 
	C80.926041,214.822708 79.930023,213.563477 79.052368,212.243317 
	C82.416275,209.774033 85.780174,207.304733 89.657425,205.040024 
	C93.701797,209.799179 97.232826,214.353760 100.763863,218.908340 
	C100.760811,222.978409 102.231873,225.544662 107.623413,224.931335 
	C111.902443,229.261124 115.421150,233.546616 118.939850,237.832123 
z"/>
<path fill="#5264D5" opacity="1.000000" stroke="none" 
	d="
M71.001976,225.025543 
	C72.058296,225.032745 73.114616,225.039948 74.585144,225.418671 
	C76.360596,228.256302 77.721848,230.722443 79.083092,233.188568 
	C75.270332,236.067352 71.457573,238.946121 67.167557,241.573654 
	C62.758224,236.934219 60.957706,230.360962 54.065720,229.006989 
	C54.072433,225.428909 53.048729,222.751785 48.365555,222.545685 
	C44.339741,217.828384 40.703693,213.499039 37.067650,209.169693 
	C40.745445,206.512985 44.423241,203.856293 48.760010,201.097443 
	C53.316593,205.080292 57.214199,209.165298 61.111809,213.250305 
	C60.945946,213.661469 60.780079,214.072617 60.146118,214.855392 
	C59.806816,216.156418 59.935604,217.085815 60.064384,218.015213 
	C61.483929,219.008392 62.903477,220.001572 64.650787,221.509552 
	C65.241440,226.526855 67.590561,226.842224 71.001976,225.025543 
z"/>
<path fill="#4D41D1" opacity="1.000000" stroke="none" 
	d="
M419.149048,198.391602 
	C420.059692,197.081299 420.907318,195.585968 421.887665,195.493271 
	C425.162720,195.183502 428.485291,195.375870 432.186768,195.375870 
	C432.186768,205.869186 432.186768,216.060638 432.186768,226.635529 
	C428.080994,226.635529 423.898743,226.635529 419.146851,226.635529 
	C419.146851,217.338409 419.146851,208.093811 419.149048,198.391602 
z"/>
<path fill="#66B3E1" opacity="1.000000" stroke="none" 
	d="
M101.048615,218.717682 
	C97.232826,214.353760 93.701797,209.799179 89.985619,204.913025 
	C94.007019,201.415024 98.058006,198.009048 102.463150,195.148422 
	C107.017143,192.191132 112.081665,193.229889 114.809616,197.116898 
	C117.793068,201.367966 117.242752,205.695786 112.888657,209.426193 
	C109.168533,212.613434 105.194878,215.504776 101.048615,218.717682 
z"/>
<path fill="#66B3E1" opacity="1.000000" stroke="none" 
	d="
M81.308662,193.043793 
	C77.092751,190.301559 75.201233,186.829895 76.832245,182.259125 
	C78.265839,178.241638 81.536858,176.158829 85.693146,176.319321 
	C89.844292,176.479660 93.305466,178.755753 93.933372,182.926163 
	C94.320953,185.500381 93.470573,188.851959 91.954330,190.986954 
	C89.521881,194.412033 85.619537,194.856857 81.308662,193.043793 
z"/>
<path fill="#4C40D1" opacity="1.000000" stroke="none" 
	d="
M59.962379,246.880402 
	C59.507957,247.355301 59.106579,247.899384 58.591057,248.294586 
	C52.337936,253.088608 46.707207,253.025558 43.287323,248.149094 
	C40.032162,243.507507 41.751522,238.426468 48.778366,234.001144 
	C54.976372,235.784027 59.562286,241.443375 59.962379,246.880402 
z"/>
<path fill="#5F91DC" opacity="1.000000" stroke="none" 
	d="
M58.866585,193.649292 
	C61.914337,190.240814 65.692513,187.689575 70.143326,189.674332 
	C72.649025,190.791733 75.235161,193.612411 76.063286,196.213867 
	C77.758583,201.539352 74.233635,204.814987 69.379761,206.694626 
	C68.354149,205.050262 67.904007,203.618240 67.006020,202.569809 
	C64.388840,199.514099 61.592609,196.611755 58.866585,193.649292 
z"/>
<path fill="#587AD8" opacity="1.000000" stroke="none" 
	d="
M58.561691,193.833755 
	C61.592609,196.611755 64.388840,199.514099 67.006020,202.569809 
	C67.904007,203.618240 68.354149,205.050262 69.022789,206.678253 
	C69.036674,207.049469 69.027122,207.012619 68.808060,207.073242 
	C68.288719,207.282776 68.081787,207.514862 67.968201,207.830154 
	C65.901726,209.566101 63.835255,211.302032 61.440292,213.144135 
	C57.214199,209.165298 53.316593,205.080292 49.052071,200.925598 
	C51.875702,198.576660 55.066246,196.297440 58.561691,193.833755 
z"/>
<path fill="#5264D5" opacity="1.000000" stroke="none" 
	d="
M99.967728,250.921280 
	C94.838196,255.587646 89.895706,255.758728 86.218475,251.397202 
	C82.574471,247.075027 83.519180,242.273560 89.558365,237.989960 
	C93.483101,242.366592 96.725418,246.643936 99.967728,250.921280 
z"/>
<path fill="#4D41D1" opacity="1.000000" stroke="none" 
	d="
M36.748764,209.276901 
	C40.703693,213.499039 44.339741,217.828384 47.971336,222.515564 
	C42.244320,226.534729 37.492367,226.267075 34.274590,222.102203 
	C31.252033,218.189957 32.036091,213.563263 36.748764,209.276901 
z"/>
<path fill="#587AD8" opacity="1.000000" stroke="none" 
	d="
M100.312790,250.928009 
	C96.725418,246.643936 93.483101,242.366592 89.901070,237.924652 
	C91.036026,236.393158 92.510696,235.026230 94.155518,233.345612 
	C100.775574,234.900909 104.240425,239.823532 107.052307,245.826782 
	C104.940369,247.784531 102.799103,249.359634 100.312790,250.928009 
z"/>
<path fill="#4D41D1" opacity="1.000000" stroke="none" 
	d="
M80.981049,264.815674 
	C76.596443,268.423035 72.745232,268.756348 69.041908,265.848907 
	C65.356606,262.955627 64.869301,258.633179 68.314697,253.291916 
	C72.978668,256.981567 76.979858,260.898621 80.981049,264.815674 
z"/>
<path fill="#66B3E1" opacity="1.000000" stroke="none" 
	d="
M119.270767,237.748474 
	C115.421150,233.546616 111.902443,229.261124 108.008461,224.898605 
	C112.715881,220.185532 117.667656,220.006241 121.527542,224.318527 
	C125.169983,228.387878 124.432755,233.496902 119.270767,237.748474 
z"/>
<path fill="#4D41D1" opacity="1.000000" stroke="none" 
	d="
M60.294655,246.820190 
	C59.562286,241.443375 54.976372,235.784027 49.109077,233.931381 
	C50.347683,232.426544 51.972130,230.953110 53.831146,229.243347 
	C60.957706,230.360962 62.758224,236.934219 66.829651,241.627075 
	C64.854988,243.541153 62.740959,245.150574 60.294655,246.820190 
z"/>
<path fill="#5264D5" opacity="1.000000" stroke="none" 
	d="
M81.296600,264.731384 
	C76.979858,260.898621 72.978668,256.981567 68.631531,253.077042 
	C72.453026,248.905151 76.890320,248.407700 80.839478,251.682205 
	C85.077187,255.195969 85.334007,259.505188 81.296600,264.731384 
z"/>
<path fill="#587AD8" opacity="1.000000" stroke="none" 
	d="
M71.005615,224.617432 
	C67.590561,226.842224 65.241440,226.526855 64.980042,221.644196 
	C69.451813,218.296616 73.922073,215.329193 78.722351,212.302551 
	C79.930023,213.563477 80.926041,214.822708 81.647118,216.223465 
	C82.204094,217.305420 82.976616,218.798340 82.611496,219.674301 
	C82.297417,220.427811 80.537460,220.775467 79.367989,220.927841 
	C77.757271,221.137711 75.944763,220.581436 74.508652,221.122665 
	C73.147720,221.635559 72.160706,223.140610 71.005615,224.617432 
z"/>
<path fill="#587AD8" opacity="1.000000" stroke="none" 
	d="
M79.426666,233.111923 
	C77.721848,230.722443 76.360596,228.256302 74.981064,225.431427 
	C79.888275,225.378922 84.813766,225.685181 89.849014,226.355881 
	C86.562584,228.825302 83.166412,230.930283 79.426666,233.111923 
z"/>
<path fill="#5264D5" opacity="1.000000" stroke="none" 
	d="
M354.571167,226.898773 
	C352.701599,227.020981 351.239960,227.020981 349.494690,227.020981 
	C349.494690,224.919754 349.494690,223.193848 349.494690,221.183640 
	C351.433197,221.183640 353.186066,221.183640 355.653229,221.183640 
	C355.421417,223.106781 355.200256,224.941681 354.571167,226.898773 
z"/>
<path fill="#587AD8" opacity="1.000000" stroke="none" 
	d="
M60.243988,217.749756 
	C59.935604,217.085815 59.806816,216.156418 59.920029,215.102600 
	C60.249214,215.813553 60.336403,216.648926 60.243988,217.749756 
z"/>
<path fill="#5F91DC" opacity="1.000000" stroke="none" 
	d="
M68.161346,207.713165 
	C68.081787,207.514862 68.288719,207.282776 68.822235,207.081451 
	C68.852386,207.255875 68.618721,207.444931 68.161346,207.713165 
z"/>
<path fill="#FFFFFF" opacity="1.000000" stroke="none" 
	d="
M387.600708,209.827728 
	C388.629517,208.096237 389.444977,206.678268 390.581604,204.701935 
	C392.422363,207.814667 394.028931,210.531372 395.923615,213.735275 
	C392.272858,213.735275 389.257568,213.735275 385.799255,213.735275 
	C386.380188,212.420593 386.883789,211.280945 387.600708,209.827728 
z"/>
</svg>